<?xml version="1.0" encoding="UTF-8"?>
<svg id="Layer_1" data-name="Layer 1" xmlns="http://www.w3.org/2000/svg" viewBox="0 0 494.94 499.55">
  <defs>
    <style>
      .cls-1 {
        fill: #fff;
        stroke-width: 0px;
      }
    </style>
  </defs>
  <g>
    <path class="cls-1" d="m318.5,258.37l-1.31-40.88h-24.68v20.74h-13.04v-20.74h-24.89v20.74h-13.04v-20.74h-24.89v20.74h-13.04v-20.74h-25.87l-1.31,40.88,19.98,20.74-11.67,124.43,62.85,62.81,62.58-62.81-11.67-124.43,19.98-20.74Zm-99.47,52.14h-8.3v-24.89h8.3v24.89Zm33.18,0h-8.3v-24.89h8.3v24.89Zm33.18,0h-8.3v-24.89h8.3v24.89Z"/>
    <g>
      <polygon class="cls-1" points="173.09 233.61 173.7 213.34 208.36 213.34 208.36 234.08 213.1 234.08 213.1 213.34 245.1 213.34 245.1 234.08 251.03 234.08 251.03 213.34 283.02 213.34 283.02 234.08 288.95 234.08 288.95 213.34 321.24 213.34 321.85 233.65 380.67 218.97 289.83 206.22 341.65 124.78 265.09 181.49 247.47 85.77 230.12 181.49 153.29 124.78 205.38 206.22 114.27 218.97 173.09 233.61"/>
      <polygon class="cls-1" points="192.17 281.37 182.92 271.77 153.29 313.15 191.34 290.22 192.17 281.37"/>
      <polygon class="cls-1" points="302.78 281.37 303.59 290.13 341.65 313.15 312.11 271.68 302.78 281.37"/>
    </g>
  </g>
  <path class="cls-1" d="m247.42,499.55L0,247.52,247.52,0l247.42,252.03-247.52,247.52ZM23.36,247.63l224.17,228.35,224.06-224.06L247.42,23.57,23.36,247.63Z"/>
</svg>